<?xml version="1.0" encoding="utf-8"?>
<!DOCTYPE svg PUBLIC "-//W3C//DTD SVG 1.1//EN" "http://www.w3.org/Graphics/SVG/1.1/DTD/svg11.dtd">
<svg version="1.1" xmlns="http://www.w3.org/2000/svg" xmlns:xlink="http://www.w3.org/1999/xlink" x="0px" y="0px" width="200px"
	 height="200px" viewBox="0 0 440 475.957" enable-background="new 0 0 200 200" xml:space="preserve">
<g id="Layer_0">
	<g>
			<path fill="#A7A838" d="M132.626,295.063c17.447,9.364,29.375,9.694,37.389,6.823c7.6-14.27,15.618-32.911,18.141-52.788
				c1.434-11.392,0.646-22.988-2.738-33.239c-3.356-11.792-7.13-21.613-11.535-30.508c-8.749-17.491-18.806-28.962-21.892-32.736
				c-3.192-3.73-8.824-10.535-15.796-18.531c-7.069-7.76-15.272-17.744-21.479-27.571C101.633,86.938,92.344,68.22,92.365,68.227
				c-0.025-0.021,11.509,17.423,26.429,35.208c7.37,9.202,15.667,17.378,23.627,24.696c7.697,7.388,13.995,13.949,17.311,17.838
				c6.047,7.459,44.686,48.372,42.695,104.529c-1.203,13.938-4.612,26.97-8.785,38.631c6.905,0.751,16.565-0.042,23.955-7.967
				c12.867-13.848,40.281-62.245,5.3-120.066C187.9,103.273,127.51,73.325,104.92,48.769C82.33,24.227,82.261,0,82.261,0
				S-4.869,192.465,132.626,295.063z"/>
			<path fill="#678237" d="M192.35,307.857c-10.956,7.919-14.709,15.146-15.338,20.893c6.49,8.903,15.551,19.41,26.994,26.865
				c6.572,4.266,13.9,7.233,21.211,8.205c8.215,1.442,15.382,2.046,22.148,1.996c13.344-0.146,23.358-2.914,26.596-3.7
				c3.243-0.837,9.084-2.27,16.074-4.169c6.858-2.009,15.43-4.087,23.305-4.964c15.896-2.184,30.131-2.32,30.12-2.316
				c0.011-0.008-14.09,1.859-29.458,5.74c-7.839,1.771-15.336,4.447-22.16,7.137c-6.845,2.512-12.736,4.447-16.114,5.322
				c-6.358,1.485-42.959,12.989-76.827-4.941c-8.193-4.869-15.188-10.847-21.076-16.869c-2.526,3.99-4.912,10.183-2.246,17.057
				c4.656,12.031,26.2,43.226,72.074,38.997c45.872-4.264,82.229-32.388,104.012-38.955c21.778-6.543,36.656,0.606,36.656,0.606
				S296.197,254.056,192.35,307.857z"/>
		</g>
</g>
</svg>
